<svg width="36" height="36" viewBox="0 0 36 36" fill="none" xmlns="http://www.w3.org/2000/svg">
<path d="M28.125 14.625C28.125 11.9397 27.0583 9.36435 25.1595 7.46554C23.2606 5.56674 20.6853 4.5 18 4.5C15.3147 4.5 12.7393 5.56674 10.8405 7.46554C8.94174 9.36435 7.875 11.9397 7.875 14.625C7.875 18.7785 11.1982 24.192 18 30.6765C24.8018 24.192 28.125 18.7785 28.125 14.625ZM18 33.75C9.74925 26.2507 5.625 19.8743 5.625 14.625C5.625 11.3429 6.92879 8.19532 9.24955 5.87455C11.5703 3.55379 14.7179 2.25 18 2.25C21.2821 2.25 24.4297 3.55379 26.7504 5.87455C29.0712 8.19532 30.375 11.3429 30.375 14.625C30.375 19.8743 26.2507 26.2507 18 33.75Z" fill="black"/>
<path d="M18 18C18.8951 18 19.7536 17.6444 20.3865 17.0115C21.0194 16.3786 21.375 15.5201 21.375 14.625C21.375 13.7299 21.0194 12.8714 20.3865 12.2385C19.7536 11.6056 18.8951 11.25 18 11.25C17.1049 11.25 16.2464 11.6056 15.6135 12.2385C14.9806 12.8714 14.625 13.7299 14.625 14.625C14.625 15.5201 14.9806 16.3786 15.6135 17.0115C16.2464 17.6444 17.1049 18 18 18ZM18 20.25C16.5082 20.25 15.0774 19.6574 14.0225 18.6025C12.9676 17.5476 12.375 16.1168 12.375 14.625C12.375 13.1332 12.9676 11.7024 14.0225 10.6475C15.0774 9.59263 16.5082 9 18 9C19.4918 9 20.9226 9.59263 21.9775 10.6475C23.0324 11.7024 23.625 13.1332 23.625 14.625C23.625 16.1168 23.0324 17.5476 21.9775 18.6025C20.9226 19.6574 19.4918 20.25 18 20.25Z" fill="black"/>
</svg>
