<svg width="14" height="14" viewBox="0 0 14 14" fill="none" xmlns="http://www.w3.org/2000/svg">
<path fill-rule="evenodd" clip-rule="evenodd" d="M4.52082 10.2084C4.52082 9.96676 4.32495 9.77087 4.08332 9.77087H1.16666C0.925034 9.77087 0.729156 9.96676 0.729156 10.2084C0.729156 10.45 0.925034 10.6459 1.16666 10.6459H4.08332C4.32495 10.6459 4.52082 10.45 4.52082 10.2084Z" fill="black"/>
<path fill-rule="evenodd" clip-rule="evenodd" d="M9.47916 3.79163C9.47916 3.55 9.67504 3.35413 9.91666 3.35413H12.8333C13.0749 3.35413 13.2708 3.55 13.2708 3.79163C13.2708 4.03325 13.0749 4.22913 12.8333 4.22913H9.91666C9.67504 4.22913 9.47916 4.03325 9.47916 3.79163Z" fill="black"/>
<path fill-rule="evenodd" clip-rule="evenodd" d="M13.2708 10.2084C13.2708 9.96676 13.0749 9.77087 12.8333 9.77087H7.58331C7.3417 9.77087 7.14581 9.96676 7.14581 10.2084C7.14581 10.45 7.3417 10.6459 7.58331 10.6459H12.8333C13.0749 10.6459 13.2708 10.45 13.2708 10.2084Z" fill="black"/>
<path fill-rule="evenodd" clip-rule="evenodd" d="M0.729156 3.79163C0.729156 3.55 0.925034 3.35413 1.16666 3.35413H6.41666C6.65827 3.35413 6.85416 3.55 6.85416 3.79163C6.85416 4.03325 6.65827 4.22913 6.41666 4.22913H1.16666C0.925034 4.22913 0.729156 4.03325 0.729156 3.79163Z" fill="black"/>
<path fill-rule="evenodd" clip-rule="evenodd" d="M5.83331 8.8374C6.55816 8.8374 7.14581 9.42505 7.14581 10.1499C7.14581 10.8748 6.55816 11.4624 5.83331 11.4624C5.10844 11.4624 4.52081 10.8748 4.52081 10.1499C4.52081 9.42505 5.10844 8.8374 5.83331 8.8374ZM8.02081 10.1499C8.02081 8.94176 7.04145 7.9624 5.83331 7.9624C4.62519 7.9624 3.64581 8.94176 3.64581 10.1499C3.64581 11.358 4.62519 12.3374 5.83331 12.3374C7.04145 12.3374 8.02081 11.358 8.02081 10.1499Z" fill="black"/>
<path fill-rule="evenodd" clip-rule="evenodd" d="M8.16666 2.42078C7.44181 2.42078 6.85416 3.0084 6.85416 3.73328C6.85416 4.45815 7.44181 5.04578 8.16666 5.04578C8.89151 5.04578 9.47916 4.45815 9.47916 3.73328C9.47916 3.0084 8.89151 2.42078 8.16666 2.42078ZM5.97916 3.73328C5.97916 2.52515 6.95851 1.54578 8.16666 1.54578C9.3748 1.54578 10.3542 2.52515 10.3542 3.73328C10.3542 4.9414 9.3748 5.92078 8.16666 5.92078C6.95851 5.92078 5.97916 4.9414 5.97916 3.73328Z" fill="black"/>
</svg>
