<svg width="14" height="14" viewBox="0 0 14 14" fill="none" xmlns="http://www.w3.org/2000/svg">
<g clip-path="url(#clip0_60_82)">
<path fill-rule="evenodd" clip-rule="evenodd" d="M1.45817 6.70833C1.45817 5.23859 2.04202 3.82905 3.08129 2.78978C4.12055 1.75052 5.5301 1.16667 6.99984 1.16667C8.46958 1.16667 9.87912 1.75052 10.9184 2.78978C11.9577 3.82905 12.5415 5.23859 12.5415 6.70833C12.5415 8.17807 11.9577 9.58762 10.9184 10.6269C9.87912 11.6661 8.46958 12.25 6.99984 12.25C5.5301 12.25 4.12055 11.6661 3.08129 10.6269C2.04202 9.58762 1.45817 8.17807 1.45817 6.70833ZM6.99984 0C3.29509 0 0.291504 3.00358 0.291504 6.70833C0.291504 10.4131 3.29509 13.4167 6.99984 13.4167C10.7046 13.4167 13.7082 10.4131 13.7082 6.70833C13.7082 3.00358 10.7046 0 6.99984 0ZM6.4165 3.79167C6.4165 3.63696 6.47796 3.48858 6.58736 3.37919C6.69675 3.26979 6.84513 3.20833 6.99984 3.20833C7.15455 3.20833 7.30292 3.26979 7.41232 3.37919C7.52171 3.48858 7.58317 3.63696 7.58317 3.79167V6.70833H9.9165C10.0712 6.70833 10.2196 6.76979 10.329 6.87919C10.4384 6.98858 10.4998 7.13696 10.4998 7.29167C10.4998 7.44638 10.4384 7.59475 10.329 7.70415C10.2196 7.81354 10.0712 7.875 9.9165 7.875H6.99984C6.84513 7.875 6.69675 7.81354 6.58736 7.70415C6.47796 7.59475 6.4165 7.44638 6.4165 7.29167V3.79167Z" fill="#B5AFB8"/>
</g>
<defs>
<clipPath id="clip0_60_82">
<rect width="14" height="14" fill="white"/>
</clipPath>
</defs>
</svg>
