<svg width="60" height="57" viewBox="0 0 60 57" fill="none" xmlns="http://www.w3.org/2000/svg">
<g clip-path="url(#clip0_27_49)">
<path d="M30 57C46.5685 57 60 44.2401 60 28.5C60 12.7599 46.5685 0 30 0C13.4315 0 0 12.7599 0 28.5C0 44.2401 13.4315 57 30 57Z" fill="#2787F5"/>
<path d="M47.2909 39.6539C46.4182 39.7705 42.15 39.6539 41.9284 39.6539C40.8251 39.6673 39.7606 39.267 38.9659 38.5398C38.0659 37.7172 37.2614 36.8103 36.3818 35.9489C36.1217 35.6873 35.8401 35.4458 35.5398 35.2266C34.8375 34.7117 34.142 34.8283 33.8114 35.6153C33.553 36.4657 33.3728 37.3359 33.2727 38.2159C33.2148 39.0126 32.683 39.5114 31.742 39.5664C31.1591 39.5956 30.5761 39.6053 30 39.5923C27.9003 39.5796 25.8337 39.0946 23.9693 38.177C21.9521 37.1091 20.1945 35.6492 18.8114 33.8923C16.5375 31.133 14.7205 28.1016 13.0977 24.9764C13.0125 24.8209 11.3489 21.4592 11.308 21.3005C11.158 20.7694 11.308 20.2609 11.7682 20.086C12.0614 19.9791 17.5432 20.086 17.6352 20.086C18.0428 20.0827 18.4408 20.2026 18.7718 20.4285C19.1028 20.6545 19.3495 20.9746 19.4761 21.3426C20.4895 23.8076 21.8769 26.1185 23.5943 28.202C23.8347 28.4806 24.116 28.725 24.4295 28.9275C24.8761 29.2157 25.2989 29.1153 25.483 28.6263C25.7011 27.9478 25.8294 27.2461 25.8648 26.5374C25.8955 25.1318 25.8648 24.2056 25.783 22.8032C25.7284 21.9029 25.3943 21.1127 23.9966 20.8601C23.567 20.7888 23.5295 20.452 23.8057 20.1152C24.3818 19.4156 25.1693 19.3055 26.0523 19.2634C27.3682 19.1922 28.6841 19.2407 30 19.2634H30.2864C30.8591 19.2614 31.4304 19.3168 31.9909 19.4286C32.3222 19.4922 32.6231 19.6559 32.8485 19.8952C33.074 20.1345 33.212 20.4365 33.242 20.7564C33.3094 21.1111 33.3379 21.4714 33.3273 21.8316C33.2932 23.3668 33.2148 24.8986 33.1977 26.4337C33.182 27.0416 33.2404 27.6491 33.3716 28.2441C33.5591 29.0603 34.1489 29.2643 34.7352 28.6749C35.4945 27.9129 36.1909 27.0965 36.8182 26.2329C37.9274 24.6591 38.8425 22.9693 39.5455 21.1969C39.9273 20.2868 40.2273 20.086 41.25 20.086H47.0659C47.4117 20.0803 47.7565 20.1239 48.0886 20.2156C48.2062 20.2449 48.3161 20.297 48.4115 20.3686C48.5069 20.4402 48.5857 20.5297 48.643 20.6315C48.7003 20.7334 48.7348 20.8454 48.7444 20.9605C48.754 21.0756 48.7385 21.1913 48.6989 21.3005C48.4125 22.5118 47.7239 23.5449 46.9943 24.5391C45.8114 26.1326 44.5636 27.6839 43.3534 29.2514C43.2003 29.4592 43.0603 29.6755 42.9341 29.8991C42.4773 30.6796 42.5114 31.1168 43.1727 31.7678C44.2295 32.7977 45.3579 33.766 46.3773 34.8283C47.1257 35.6005 47.801 36.4339 48.3955 37.3188C49.142 38.4167 48.6818 39.466 47.2909 39.6539Z" fill="white"/>
</g>
<defs>
<clipPath id="clip0_27_49">
<rect width="60" height="57" fill="white"/>
</clipPath>
</defs>
</svg>
