<svg width="52" height="49" viewBox="0 0 52 49" fill="none" xmlns="http://www.w3.org/2000/svg">
<g clip-path="url(#clip0_117_149)">
<path d="M26 49C40.3594 49 52 38.031 52 24.5C52 10.969 40.3594 0 26 0C11.6406 0 0 10.969 0 24.5C0 38.031 11.6406 49 26 49Z" fill="#2787F5"/>
<path d="M40.9854 34.0886C40.2291 34.1888 36.53 34.0886 36.3379 34.0886C35.3817 34.1001 34.4592 33.756 33.7704 33.1308C32.9904 32.4237 32.2932 31.6441 31.5309 30.9036C31.3054 30.6787 31.0614 30.4711 30.8011 30.2827C30.1925 29.84 29.5897 29.9403 29.3032 30.6168C29.0792 31.3479 28.923 32.0959 28.8363 32.8524C28.7861 33.5373 28.3252 33.9661 27.5097 34.0134C27.0045 34.0384 26.4993 34.0468 26 34.0357C24.1803 34.0247 22.3892 33.6078 20.7734 32.819C19.0251 31.901 17.5019 30.6459 16.3032 29.1357C14.3325 26.7636 12.7577 24.1577 11.3513 21.4711C11.2775 21.3374 9.83565 18.4475 9.8002 18.3111C9.6702 17.8545 9.8002 17.4174 10.1991 17.2671C10.4532 17.1752 15.2041 17.2671 15.2838 17.2671C15.637 17.2642 15.982 17.3673 16.2689 17.5615C16.5557 17.7557 16.7695 18.031 16.8793 18.3473C17.7575 20.4663 18.96 22.4529 20.4484 24.244C20.6567 24.4835 20.9005 24.6935 21.1722 24.8676C21.5593 25.1154 21.9257 25.0291 22.0852 24.6087C22.2743 24.0254 22.3854 23.4222 22.4161 22.813C22.4427 21.6047 22.4161 20.8084 22.3452 19.6029C22.2979 18.829 22.0084 18.1496 20.797 17.9325C20.4247 17.8712 20.3922 17.5817 20.6316 17.2921C21.1309 16.6908 21.8134 16.5961 22.5786 16.5599C23.7191 16.4987 24.8595 16.5404 26 16.5599H26.2482C26.7445 16.5582 27.2397 16.6058 27.7254 16.7019C28.0126 16.7566 28.2733 16.8973 28.4687 17.103C28.6641 17.3087 28.7837 17.5684 28.8097 17.8434C28.8681 18.1483 28.8928 18.458 28.8836 18.7677C28.8541 20.0874 28.7861 21.4042 28.7713 22.7239C28.7577 23.2464 28.8083 23.7686 28.922 24.2802C29.0845 24.9818 29.5957 25.1572 30.1038 24.6505C30.7619 23.9954 31.3654 23.2936 31.9091 22.5513C32.8704 21.1983 33.6635 19.7457 34.2727 18.222C34.6036 17.4397 34.8636 17.2671 35.75 17.2671H40.7904C41.0901 17.2621 41.3889 17.2997 41.6768 17.3784C41.7787 17.4037 41.8739 17.4485 41.9566 17.51C42.0393 17.5715 42.1076 17.6485 42.1572 17.736C42.2069 17.8236 42.2368 17.9198 42.2451 18.0188C42.2535 18.1178 42.24 18.2173 42.2057 18.3111C41.9575 19.3524 41.3607 20.2405 40.7284 21.0952C39.7032 22.465 38.6218 23.7986 37.5729 25.1461C37.4403 25.3248 37.3189 25.5107 37.2095 25.7029C36.8136 26.3738 36.8432 26.7497 37.4163 27.3093C38.3322 28.1946 39.3102 29.0271 40.1936 29.9403C40.8422 30.6041 41.4275 31.3206 41.9427 32.0812C42.5897 33.025 42.1909 33.9271 40.9854 34.0886Z" fill="white"/>
</g>
<defs>
<clipPath id="clip0_117_149">
<rect width="52" height="49" fill="white"/>
</clipPath>
</defs>
</svg>
