<svg width="52" height="49" viewBox="0 0 52 49" fill="none" xmlns="http://www.w3.org/2000/svg">
<path d="M39 3.0625H13C7.61522 3.0625 3.25 7.17588 3.25 12.25V36.75C3.25 41.8241 7.61522 45.9375 13 45.9375H39C44.3848 45.9375 48.75 41.8241 48.75 36.75V12.25C48.75 7.17588 44.3848 3.0625 39 3.0625Z" fill="url(#paint0_radial_117_154)"/>
<path d="M39 3.0625H13C7.61522 3.0625 3.25 7.17588 3.25 12.25V36.75C3.25 41.8241 7.61522 45.9375 13 45.9375H39C44.3848 45.9375 48.75 41.8241 48.75 36.75V12.25C48.75 7.17588 44.3848 3.0625 39 3.0625Z" fill="url(#paint1_radial_117_154)"/>
<path d="M39 3.0625H13C7.61522 3.0625 3.25 7.17588 3.25 12.25V36.75C3.25 41.8241 7.61522 45.9375 13 45.9375H39C44.3848 45.9375 48.75 41.8241 48.75 36.75V12.25C48.75 7.17588 44.3848 3.0625 39 3.0625Z" fill="url(#paint2_radial_117_154)"/>
<path d="M37.375 16.0781C37.375 17.3466 36.2837 18.375 34.9375 18.375C33.5913 18.375 32.5 17.3466 32.5 16.0781C32.5 14.8096 33.5913 13.7812 34.9375 13.7812C36.2837 13.7812 37.375 14.8096 37.375 16.0781Z" fill="white"/>
<path fill-rule="evenodd" clip-rule="evenodd" d="M26 32.1562C30.4873 32.1562 34.125 28.7284 34.125 24.5C34.125 20.2716 30.4873 16.8438 26 16.8438C21.5127 16.8438 17.875 20.2716 17.875 24.5C17.875 28.7284 21.5127 32.1562 26 32.1562ZM26 29.0938C28.6925 29.0938 30.875 27.0371 30.875 24.5C30.875 21.9629 28.6925 19.9062 26 19.9062C23.3075 19.9062 21.125 21.9629 21.125 24.5C21.125 27.0371 23.3075 29.0938 26 29.0938Z" fill="white"/>
<path fill-rule="evenodd" clip-rule="evenodd" d="M9.75 23.8875C9.75 18.742 9.75 16.1692 10.8127 14.204C11.7475 12.4752 13.239 11.0697 15.0736 10.1889C17.1592 9.1875 19.8895 9.1875 25.35 9.1875H26.65C32.1105 9.1875 34.8408 9.1875 36.9263 10.1889C38.761 11.0697 40.2526 12.4752 41.1873 14.204C42.25 16.1692 42.25 18.742 42.25 23.8875V25.1125C42.25 30.258 42.25 32.8308 41.1873 34.796C40.2526 36.5248 38.761 37.9303 36.9263 38.8111C34.8408 39.8125 32.1105 39.8125 26.65 39.8125H25.35C19.8895 39.8125 17.1592 39.8125 15.0736 38.8111C13.239 37.9303 11.7475 36.5248 10.8127 34.796C9.75 32.8308 9.75 30.258 9.75 25.1125V23.8875ZM25.35 12.25H26.65C29.4339 12.25 31.3263 12.2524 32.7891 12.365C34.2141 12.4747 34.9427 12.6735 35.451 12.9176C36.674 13.5048 37.6683 14.4418 38.2915 15.5943C38.5505 16.0732 38.7616 16.7598 38.878 18.1026C38.9974 19.481 39 21.2642 39 23.8875V25.1125C39 27.7358 38.9974 29.519 38.878 30.8974C38.7616 32.2402 38.5505 32.9268 38.2915 33.4057C37.6683 34.5582 36.674 35.4951 35.451 36.0824C34.9427 36.3265 34.2141 36.5254 32.7891 36.635C31.3263 36.7476 29.4339 36.75 26.65 36.75H25.35C22.5661 36.75 20.6737 36.7476 19.2109 36.635C17.7859 36.5254 17.0573 36.3265 16.549 36.0824C15.326 35.4951 14.3316 34.5582 13.7085 33.4057C13.4495 32.9268 13.2385 32.2402 13.122 30.8974C13.0025 29.519 13 27.7358 13 25.1125V23.8875C13 21.2642 13.0025 19.481 13.122 18.1026C13.2385 16.7598 13.4495 16.0732 13.7085 15.5943C14.3316 14.4418 15.326 13.5048 16.549 12.9176C17.0573 12.6735 17.7859 12.4747 19.2109 12.365C20.6737 12.2524 22.5661 12.25 25.35 12.25Z" fill="white"/>
<defs>
<radialGradient id="paint0_radial_117_154" cx="0" cy="0" r="1" gradientUnits="userSpaceOnUse" gradientTransform="translate(19.5 35.2188) rotate(-53.7678) scale(39.865 40.6496)">
<stop stop-color="#B13589"/>
<stop offset="0.79309" stop-color="#C62F94"/>
<stop offset="1" stop-color="#8A3AC8"/>
</radialGradient>
<radialGradient id="paint1_radial_117_154" cx="0" cy="0" r="1" gradientUnits="userSpaceOnUse" gradientTransform="translate(17.875 47.4688) rotate(-63.8126) scale(34.9812 36.3127)">
<stop stop-color="#E0E8B7"/>
<stop offset="0.444662" stop-color="#FB8A2E"/>
<stop offset="0.71474" stop-color="#E2425C"/>
<stop offset="1" stop-color="#E2425C" stop-opacity="0"/>
</radialGradient>
<radialGradient id="paint2_radial_117_154" cx="0" cy="0" r="1" gradientUnits="userSpaceOnUse" gradientTransform="translate(0.812501 4.59375) rotate(-7.6668) scale(63.1269 12.7518)">
<stop offset="0.156701" stop-color="#406ADC"/>
<stop offset="0.467799" stop-color="#6A45BE"/>
<stop offset="1" stop-color="#6A45BE" stop-opacity="0"/>
</radialGradient>
</defs>
</svg>
