<svg width="52" height="49" viewBox="0 0 52 49" fill="none" xmlns="http://www.w3.org/2000/svg">
<g clip-path="url(#clip0_117_161)">
<path d="M26.0001 49.0001C40.3595 49.0001 52.0001 38.0311 52.0001 24.5C52.0001 10.969 40.3595 0 26.0001 0C11.6406 0 0 10.969 0 24.5C0 38.0311 11.6406 49.0001 26.0001 49.0001Z" fill="#D42428"/>
<path d="M44.384 7.17334C54.5376 16.742 54.5385 32.2552 44.384 41.8239C34.2303 51.3917 17.7665 51.3921 7.612 41.8239L44.384 7.17334Z" fill="#CC202D"/>
<path d="M51.4774 29.4072L38.6091 17.2817L23.4323 18.91L14.2521 32.3024L31.4061 48.4663C41.4916 46.4559 49.4206 38.9383 51.4774 29.4072Z" fill="#BA202E"/>
<path d="M39.606 19.7723C39.606 17.7184 37.8402 16.0537 35.6618 16.0537H17.1572C14.9793 16.0537 13.2139 17.7188 13.2139 19.7723V29.7437C13.2139 31.7975 14.9796 33.4622 17.1572 33.4622H35.6615C37.8403 33.4622 39.6056 31.7971 39.6056 29.7437V19.7723H39.606ZM23.7699 28.9645V19.599L31.3071 24.2819L23.7699 28.9645Z" fill="white"/>
</g>
<defs>
<clipPath id="clip0_117_161">
<rect width="52" height="49" fill="white"/>
</clipPath>
</defs>
</svg>
