<svg width="183" height="38" viewBox="0 0 183 38" fill="none" xmlns="http://www.w3.org/2000/svg">
<g clip-path="url(#clip0_1_6)">
<path d="M0.638184 14.1166C0.638184 17.4816 3.32936 20.3542 6.70401 20.5594H6.74673H22.5948H22.6375C26.3966 20.3132 29.3441 17.1944 29.3441 13.5011C29.3441 10.3002 27.0801 7.46868 24.0044 6.64795C23.321 2.83153 19.8609 0 15.76 0C12.7698 0 10.0359 1.51836 8.54084 3.98056C8.28454 3.93952 7.98552 3.89849 7.72922 3.89849C5.1662 3.89849 3.07306 5.90929 3.07306 8.37149C3.07306 8.65875 3.11578 8.946 3.15849 9.23326C1.62068 10.3413 0.638184 12.1879 0.638184 14.1166ZM4.73902 10.3413C5.12348 10.1361 5.29435 9.68466 5.12348 9.2743C4.99533 8.98704 4.95261 8.65875 4.95261 8.33045C4.95261 6.85313 6.23412 5.62203 7.77194 5.62203C8.11367 5.62203 8.41269 5.66307 8.71171 5.78618C9.13888 5.95032 9.65149 5.74514 9.86508 5.33477C10.933 3.11879 13.2824 1.72354 15.8027 1.72354C19.2201 1.72354 21.9967 4.18574 22.3385 7.42764C22.3812 7.83801 22.6802 8.12527 23.1074 8.20734C25.6704 8.61771 27.5927 10.9158 27.5927 13.5011C27.5927 16.2505 25.3287 18.6307 22.5948 18.8359H6.78944C4.44001 18.7127 2.47502 16.5378 2.47502 14.1577C2.47502 12.5572 3.32936 11.1209 4.73902 10.3413ZM15.0338 22.9395C14.5212 22.9395 14.1368 23.3499 14.1368 23.8013V32.6652C13.0261 33.0346 12.2145 34.0194 12.1718 35.2095C12.1291 36.7279 13.3679 38 14.9484 38H15.0338C16.5717 38 17.8532 36.8099 17.8959 35.3326C17.8959 34.594 17.6396 33.8963 17.127 33.3628C16.7852 33.0346 16.4008 32.7883 15.9736 32.6652V23.8013C15.9309 23.3089 15.5464 22.9395 15.0338 22.9395ZM15.0338 36.2765C14.4358 36.2765 13.9659 35.784 14.0086 35.2505C14.0086 34.7171 14.4785 34.2657 15.0338 34.2657H15.0766C15.3756 34.2657 15.6319 34.3888 15.8027 34.594C15.9736 34.7991 16.1018 35.0454 16.1018 35.2916C16.0591 35.8251 15.5892 36.2765 15.0338 36.2765ZM6.27684 31.0648H8.54084C10.2495 31.0648 11.6165 29.7516 11.6165 28.1101V23.8013C11.6165 23.3089 11.1893 22.9395 10.7194 22.9395C10.2068 22.9395 9.82236 23.3499 9.82236 23.8013V28.0691C9.82236 28.7667 9.26704 29.3002 8.54084 29.3002H6.27684C5.89239 28.2333 4.82446 27.4125 3.58566 27.4125C2.00513 27.4125 0.723618 28.6436 0.723618 30.162C0.723618 31.6803 2.00513 32.9114 3.58566 32.9114C4.82446 32.9114 5.89239 32.1317 6.27684 31.0648ZM2.51774 30.162C2.51774 29.6285 2.98762 29.1771 3.54295 29.1771C4.09827 29.1771 4.56816 29.6285 4.56816 30.162C4.56816 30.6955 4.09827 31.1469 3.54295 31.1469C2.98762 31.1879 2.51774 30.7365 2.51774 30.162ZM19.3483 22.9395C18.8357 22.9395 18.4512 23.3499 18.4512 23.8013V28.0691C18.4512 29.7106 19.8182 31.0238 21.5268 31.0238H23.7908C24.1753 32.0907 25.2432 32.9114 26.482 32.9114C28.0626 32.9114 29.3441 31.6803 29.3441 30.162C29.3441 28.6436 28.0626 27.4125 26.482 27.4125C25.2432 27.4125 24.1753 28.1922 23.7908 29.3002H21.5268C20.8006 29.3002 20.2453 28.7667 20.2453 28.0691V23.8013C20.2453 23.3089 19.8609 22.9395 19.3483 22.9395ZM26.482 29.1771C27.0373 29.1771 27.5072 29.6285 27.5072 30.162C27.5072 30.6955 27.0373 31.1469 26.482 31.1469C25.9267 31.1469 25.4568 30.6955 25.4568 30.162C25.4568 29.6285 25.9267 29.1771 26.482 29.1771Z" fill="#FF471F"/>
<path d="M45.2126 30.7692H40.9138V7.83153H45.2126V30.7692ZM64.0441 30.7692H60.0019V22.8763C60.0019 21.1367 58.6224 19.7836 56.8901 19.7836C55.2219 19.7836 53.7782 21.1689 53.7782 22.8763V30.7692H49.7681V16.0143H53.7782V17.0775C54.7727 16.0788 55.8314 15.7244 56.8901 15.7244C58.8149 15.7244 60.6114 16.4654 61.9588 17.7862C63.3062 19.1715 64.0441 20.9756 64.0441 22.8763V30.7692ZM77.2935 30.7692H73.4438C72.0322 30.7692 70.7169 30.2215 69.7545 29.255C68.76 28.2563 68.2467 26.9677 68.2467 25.5502V19.4292H66.1935V16.111H68.2467V10.3121H72.0643V16.111H76.3311V19.4292H72.0643V25.4858C72.0643 26.2912 72.7701 27.0321 73.4759 27.0321H76.2669L77.2935 30.7692ZM85.6666 31.1235H85.6345C84.7042 31.1235 83.7418 30.898 82.8435 30.4792C82.0094 30.1249 81.2395 29.545 80.5337 28.804C79.4108 27.5798 78.7371 25.969 78.5767 24.2938C78.5447 24.0039 78.5126 23.7139 78.5126 23.3918C78.5126 22.7474 78.6088 22.0709 78.7692 21.3944C79.058 20.1057 79.6675 18.9138 80.5337 18.0117C81.1753 17.303 81.9132 16.7553 82.8435 16.3043C83.7097 15.8855 84.6721 15.6922 85.6666 15.6922C86.6932 15.6922 87.6236 15.8855 88.4897 16.3043C89.4522 16.7553 90.2221 17.3352 90.7996 18.0117C91.6337 18.9138 92.2753 20.0735 92.5961 21.3944C92.7565 22.0065 92.8207 22.6508 92.8207 23.3918V24.1327H82.0415L82.0736 24.3582C82.4906 26.3556 83.9984 27.8053 85.6666 27.8053H85.6987C86.629 27.7409 87.6556 27.161 88.2652 26.6456L88.6181 26.3556L91.2808 28.6751L90.7996 29.0939C90.4467 29.4161 89.9975 29.8027 89.5163 30.0604H89.4842C88.3293 30.737 87.0782 31.0913 85.6666 31.1235ZM85.6666 19.0426C84.4155 19.0426 83.1643 19.9125 82.4906 21.2655L82.3623 21.5232H89.003L88.8747 21.2655C88.1368 19.8802 86.9178 19.0426 85.6666 19.0426ZM99.686 30.7692H95.5154V7.12279H99.686V30.7692ZM108.219 30.7692H104.049V7.12279H108.219V30.7692ZM118.55 31.1235H118.517C117.587 31.1235 116.625 30.898 115.726 30.4792C114.892 30.1249 114.122 29.545 113.417 28.804C112.294 27.5798 111.62 25.969 111.46 24.2938C111.428 24.0039 111.395 23.7139 111.395 23.3918C111.395 22.7474 111.492 22.0709 111.652 21.3944C111.941 20.1057 112.55 18.9138 113.417 18.0117C114.058 17.303 114.796 16.7553 115.726 16.3043C116.593 15.8855 117.555 15.6922 118.55 15.6922C119.576 15.6922 120.506 15.8855 121.373 16.3043C122.335 16.7553 123.105 17.3352 123.682 18.0117C124.517 18.9138 125.158 20.0735 125.479 21.3944C125.639 22.0065 125.704 22.6508 125.704 23.3918V24.1327H114.924L114.956 24.3582C115.374 26.3556 116.881 27.8053 118.55 27.8053H118.582C119.512 27.7409 120.539 27.161 121.148 26.6456L121.501 26.3556L124.164 28.6751L123.682 29.0939C123.33 29.4161 122.88 29.8027 122.399 30.0604H122.367C121.212 30.737 119.961 31.0913 118.55 31.1235ZM118.55 19.0426C117.298 19.0426 116.047 19.9125 115.374 21.2655L115.245 21.5232H121.886L121.758 21.2655C121.02 19.8802 119.801 19.0426 118.55 19.0426ZM135.36 31.0913C133.307 31.0913 131.382 30.2859 129.938 28.8684L129.906 28.8362C128.495 27.3865 127.693 25.4536 127.693 23.3918C127.693 21.3299 128.495 19.3648 129.906 17.9151C131.35 16.4976 133.275 15.6922 135.36 15.6922C137.477 15.6922 139.402 16.4654 140.782 17.9151C141.102 18.2372 141.359 18.5272 141.584 18.8171L141.969 19.397L138.825 21.7488L138.376 21.1367C137.606 20.1057 136.483 19.4614 135.36 19.4614C133.339 19.4614 131.606 21.2655 131.606 23.3918C131.606 25.518 133.339 27.3221 135.36 27.3221C136.483 27.3221 137.606 26.6778 138.376 25.5824L138.793 25.0025L142.065 27.3543L141.584 27.9664C141.519 28.063 141.423 28.1597 141.327 28.2563C141.167 28.4496 140.974 28.6751 140.782 28.8684C139.37 30.2859 137.445 31.0913 135.36 31.0913ZM154.865 30.7692H151.015C149.604 30.7692 148.288 30.2215 147.326 29.255C146.332 28.2563 145.818 26.9677 145.818 25.5502V19.4292H143.765V16.111H145.818V10.3121H149.636V16.111H153.903V19.4292H149.636V25.4858C149.636 26.2912 150.342 27.0321 151.047 27.0321H153.838L154.865 30.7692ZM161.634 30.7692H157.592V16.0143H161.634V17.2063C162.789 16.0466 164.521 15.66 165.676 15.66H166.639L165.676 19.6869H165.067C163.174 19.6869 161.634 21.1689 161.634 22.9407V30.7692ZM175.333 31.0591C173.312 31.0591 171.387 30.2859 169.911 28.8362C168.467 27.3543 167.665 25.4214 167.665 23.3918C167.665 21.3622 168.467 19.4292 169.911 17.9473C171.355 16.4976 173.279 15.7244 175.333 15.7244C176.68 15.7244 177.899 16.2076 178.958 17.1741L179.118 17.303V16.0143H183V30.7692H179.118V29.6094L178.958 29.7705C177.803 30.898 176.488 31.0591 175.333 31.0591ZM175.333 19.4936C173.279 19.4936 171.547 21.2977 171.547 23.3918C171.547 25.518 173.279 27.2899 175.333 27.2899C177.386 27.2899 179.118 25.518 179.118 23.3918C179.118 21.2977 177.386 19.4936 175.333 19.4936Z" fill="white"/>
</g>
<defs>
<clipPath id="clip0_1_6">
<rect width="183" height="38" fill="white"/>
</clipPath>
</defs>
</svg>
