<svg width="60" height="57" viewBox="0 0 60 57" fill="none" xmlns="http://www.w3.org/2000/svg">
<g clip-path="url(#clip0_27_54)">
<path d="M30.0001 57.0001C46.5686 57.0001 60.0001 44.2402 60.0001 28.5001C60.0001 12.7599 46.5686 0 30.0001 0C13.4315 0 0 12.7599 0 28.5001C0 44.2402 13.4315 57.0001 30.0001 57.0001Z" fill="#D42428"/>
<path d="M51.2123 8.34424C62.928 19.4752 62.929 37.5211 51.2123 48.652C39.4965 59.782 20.4998 59.7824 8.78305 48.652L51.2123 8.34424Z" fill="#CC202D"/>
<path d="M59.397 34.2081L44.549 20.103L27.0373 21.9972L16.4448 37.5761L36.2378 56.3789C47.8749 54.0403 57.0237 45.2954 59.397 34.2081Z" fill="#BA202E"/>
<path d="M45.6992 23.0005C45.6992 20.6113 43.6618 18.6748 41.1483 18.6748H19.7968C17.2838 18.6748 15.2468 20.6118 15.2468 23.0005V34.5998C15.2468 36.989 17.2841 38.9255 19.7968 38.9255H41.1479C43.6619 38.9255 45.6988 36.9885 45.6988 34.5998V23.0005H45.6992ZM27.4268 33.6935V22.7989L36.1236 28.2464L27.4268 33.6935Z" fill="white"/>
</g>
<defs>
<clipPath id="clip0_27_54">
<rect width="60" height="57" fill="white"/>
</clipPath>
</defs>
</svg>
