<svg width="70" height="66" viewBox="0 0 70 66" fill="none" xmlns="http://www.w3.org/2000/svg">
<path d="M52.5 4.125H17.5C10.2513 4.125 4.375 9.66548 4.375 16.5V49.5C4.375 56.3345 10.2513 61.875 17.5 61.875H52.5C59.7487 61.875 65.625 56.3345 65.625 49.5V16.5C65.625 9.66548 59.7487 4.125 52.5 4.125Z" fill="url(#paint0_radial_27_90)"/>
<path d="M52.5 4.125H17.5C10.2513 4.125 4.375 9.66548 4.375 16.5V49.5C4.375 56.3345 10.2513 61.875 17.5 61.875H52.5C59.7487 61.875 65.625 56.3345 65.625 49.5V16.5C65.625 9.66548 59.7487 4.125 52.5 4.125Z" fill="url(#paint1_radial_27_90)"/>
<path d="M52.5 4.125H17.5C10.2513 4.125 4.375 9.66548 4.375 16.5V49.5C4.375 56.3345 10.2513 61.875 17.5 61.875H52.5C59.7487 61.875 65.625 56.3345 65.625 49.5V16.5C65.625 9.66548 59.7487 4.125 52.5 4.125Z" fill="url(#paint2_radial_27_90)"/>
<path d="M50.3125 21.6562C50.3125 23.3648 48.8434 24.75 47.0312 24.75C45.2191 24.75 43.75 23.3648 43.75 21.6562C43.75 19.9476 45.2191 18.5625 47.0312 18.5625C48.8434 18.5625 50.3125 19.9476 50.3125 21.6562Z" fill="white"/>
<path fill-rule="evenodd" clip-rule="evenodd" d="M35 43.3125C41.0406 43.3125 45.9375 38.6954 45.9375 33C45.9375 27.3046 41.0406 22.6875 35 22.6875C28.9594 22.6875 24.0625 27.3046 24.0625 33C24.0625 38.6954 28.9594 43.3125 35 43.3125ZM35 39.1875C38.6245 39.1875 41.5625 36.4174 41.5625 33C41.5625 29.5826 38.6245 26.8125 35 26.8125C31.3755 26.8125 28.4375 29.5826 28.4375 33C28.4375 36.4174 31.3755 39.1875 35 39.1875Z" fill="white"/>
<path fill-rule="evenodd" clip-rule="evenodd" d="M13.125 32.175C13.125 25.2444 13.125 21.779 14.5555 19.1319C15.8139 16.8034 17.8217 14.9102 20.2914 13.7238C23.0989 12.375 26.7743 12.375 34.125 12.375H35.875C43.2257 12.375 46.9011 12.375 49.7085 13.7238C52.1782 14.9102 54.1861 16.8034 55.4444 19.1319C56.875 21.779 56.875 25.2444 56.875 32.175V33.825C56.875 40.7556 56.875 44.221 55.4444 46.868C54.1861 49.1966 52.1782 51.0898 49.7085 52.2761C46.9011 53.625 43.2257 53.625 35.875 53.625H34.125C26.7743 53.625 23.0989 53.625 20.2914 52.2761C17.8217 51.0898 15.8139 49.1966 14.5555 46.868C13.125 44.221 13.125 40.7556 13.125 33.825V32.175ZM34.125 16.5H35.875C39.6226 16.5 42.17 16.5032 44.1392 16.6549C46.0574 16.8027 47.0382 17.0705 47.7225 17.3992C49.3688 18.1902 50.7073 19.4522 51.5462 21.0045C51.8949 21.6496 52.1791 22.5745 52.3357 24.3831C52.4965 26.2397 52.5 28.6415 52.5 32.175V33.825C52.5 37.3585 52.4965 39.7603 52.3357 41.6169C52.1791 43.4255 51.8949 44.3503 51.5462 44.9955C50.7073 46.5477 49.3688 47.8098 47.7225 48.6007C47.0382 48.9295 46.0574 49.1974 44.1392 49.3451C42.17 49.4967 39.6226 49.5 35.875 49.5H34.125C30.3774 49.5 27.83 49.4967 25.8608 49.3451C23.9426 49.1974 22.9618 48.9295 22.2775 48.6007C20.6312 47.8098 19.2926 46.5477 18.4537 44.9955C18.105 44.3503 17.821 43.4255 17.6643 41.6169C17.5034 39.7603 17.5 37.3585 17.5 33.825V32.175C17.5 28.6415 17.5034 26.2397 17.6643 24.3831C17.821 22.5745 18.105 21.6496 18.4537 21.0045C19.2926 19.4522 20.6312 18.1902 22.2775 17.3992C22.9618 17.0705 23.9426 16.8027 25.8608 16.6549C27.83 16.5032 30.3774 16.5 34.125 16.5Z" fill="white"/>
<defs>
<radialGradient id="paint0_radial_27_90" cx="0" cy="0" r="1" gradientUnits="userSpaceOnUse" gradientTransform="translate(26.25 47.4375) rotate(-53.7838) scale(53.6847 54.7317)">
<stop stop-color="#B13589"/>
<stop offset="0.79309" stop-color="#C62F94"/>
<stop offset="1" stop-color="#8A3AC8"/>
</radialGradient>
<radialGradient id="paint1_radial_27_90" cx="0" cy="0" r="1" gradientUnits="userSpaceOnUse" gradientTransform="translate(24.0625 63.9375) rotate(-63.8259) scale(47.1122 48.8881)">
<stop stop-color="#E0E8B7"/>
<stop offset="0.444662" stop-color="#FB8A2E"/>
<stop offset="0.71474" stop-color="#E2425C"/>
<stop offset="1" stop-color="#E2425C" stop-opacity="0"/>
</radialGradient>
<radialGradient id="paint2_radial_27_90" cx="0" cy="0" r="1" gradientUnits="userSpaceOnUse" gradientTransform="translate(1.09375 6.1875) rotate(-7.67122) scale(84.9793 17.1757)">
<stop offset="0.156701" stop-color="#406ADC"/>
<stop offset="0.467799" stop-color="#6A45BE"/>
<stop offset="1" stop-color="#6A45BE" stop-opacity="0"/>
</radialGradient>
</defs>
</svg>
