<svg width="36" height="36" viewBox="0 0 36 36" fill="none" xmlns="http://www.w3.org/2000/svg">
<path fill-rule="evenodd" clip-rule="evenodd" d="M23.8041 14.3066C24.2757 12.9937 23.0064 11.7243 21.6935 12.1959L15.4382 14.4431C14.9746 14.6096 14.6097 14.9745 14.4432 15.4382L12.196 21.6933C11.7243 23.0063 12.9937 24.2757 14.3067 23.8041L20.5619 21.557C21.0255 21.3903 21.3903 21.0255 21.557 20.5619L23.8041 14.3066ZM17.0513 17.0513L20.0126 15.9875L18.9488 18.9488L15.9875 20.0126L17.0513 17.0513Z" fill="#0F1729"/>
<path fill-rule="evenodd" clip-rule="evenodd" d="M18 3C9.71572 3 3 9.71572 3 18C3 26.2842 9.71572 33 18 33C26.2842 33 33 26.2842 33 18C33 9.71572 26.2842 3 18 3ZM6 18C6 11.3726 11.3726 6 18 6C24.6274 6 30 11.3726 30 18C30 24.6274 24.6274 30 18 30C11.3726 30 6 24.6274 6 18Z" fill="#0F1729"/>
</svg>
