<svg width="36" height="36" viewBox="0 0 36 36" fill="none" xmlns="http://www.w3.org/2000/svg">
<path d="M4.21875 4.78125L31.7812 4.78125C34.1075 4.78125 36 6.67378 36 9L36 27C36 29.3262 34.1075 31.2187 31.7813 31.2187L4.21875 31.2188C1.89253 31.2188 -1.66891e-06 29.3262 -1.87227e-06 27L-3.44588e-06 9C-3.64925e-06 6.67378 1.89253 4.78125 4.21875 4.78125ZM2.8125 27C2.8125 27.7754 3.44334 28.4063 4.21875 28.4063L31.7813 28.4062C32.5567 28.4062 33.1875 27.7754 33.1875 27L33.1875 9C33.1875 8.22459 32.5567 7.59375 31.7812 7.59375L4.21875 7.59375C3.44334 7.59375 2.8125 8.2246 2.8125 9L2.8125 27Z" fill="black"/>
<path d="M3.05136 6.53461L18.0001 17.6536L32.9488 6.53461L34.6274 8.79129L18.0001 21.1588L1.37272 8.79129L3.05136 6.53461Z" fill="black"/>
</svg>
